<!DOCTYPE svg PUBLIC "-//W3C//DTD SVG 1.1//EN" "http://www.w3.org/Graphics/SVG/1.1/DTD/svg11.dtd">
<!-- Uploaded to: SVG Repo, www.svgrepo.com, Transformed by: SVG Repo Mixer Tools -->
<svg fill="oklch(0.446 0.03 256.802" height="800px" width="800px" version="1.1" id="Capa_1" xmlns="http://www.w3.org/2000/svg" xmlns:xlink="http://www.w3.org/1999/xlink" viewBox="0 0 60 60" xml:space="preserve" transform="rotate(180)matrix(1, 0, 0, -1, 0, 0)">
<g id="SVGRepo_bgCarrier" stroke-width="0"/>
<g id="SVGRepo_tracerCarrier" stroke-linecap="round" stroke-linejoin="round"/>
<g id="SVGRepo_iconCarrier"> <path d="M46.5,2h-2V1c0-0.552-0.447-1-1-1h-17c-3.519,0-6.432,2.613-6.92,6h-3.358c-0.347-0.595-0.985-1-1.722-1 c-1.103,0-2,0.897-2,2s0.897,2,2,2c0.737,0,1.375-0.405,1.722-1h3.358c0.488,3.387,3.401,6,6.92,6h2.646 C24.905,18.811,22.5,25.113,22.5,31.605V53c0,0.552,0.447,1,1,1v2c0,0.552,0.447,1,1,1h1.142c0.447,1.72,1.999,3,3.858,3 c2.206,0,4-1.794,4-4c0-1.103,0.897-2,2-2s2,0.897,2,2v3c0,0.552,0.447,1,1,1s1-0.448,1-1v-3c0-2.206-1.794-4-4-4s-4,1.794-4,4 c0,1.103-0.897,2-2,2c-0.737,0-1.375-0.405-1.722-1H28.5c0.553,0,1-0.448,1-1v-2c0.553,0,1-0.448,1-1V33.87 c0-6.586,2.564-12.777,7.222-17.434L40.156,14H43.5c0.553,0,1-0.448,1-1v-1h2c0.553,0,1-0.448,1-1V3C47.5,2.448,47.053,2,46.5,2z M21.5,7c0-2.757,2.243-5,5-5v10C23.743,12,21.5,9.757,21.5,7z M28.5,52h-4v-4.426l4-2.337V52z M28.5,42.921l-4,2.337v-3.639l4-2 V42.921z M28.5,33.87v3.512l-4,2v-3.764l4.006-2.003C28.505,33.7,28.5,33.784,28.5,33.87z M27.5,55h-2v-1h2V55z M36.308,15.021 c-4.429,4.429-7.106,10.142-7.686,16.299L24.5,33.382v-1.777c0-6.619,2.693-13.028,7.394-17.605h5.435L36.308,15.021z M42.5,12 h-2.758H36.5v-2c0-0.552-0.447-1-1-1s-1,0.448-1,1v2h-3h-3V2h6v2c0,0.552,0.447,1,1,1s1-0.448,1-1V2h6v1v8V12z M45.5,10h-1V4h1V10z"/> </g>
</svg>