<?xml version="1.0" standalone="no"?>
<!DOCTYPE svg PUBLIC "-//W3C//DTD SVG 20010904//EN"
 "http://www.w3.org/TR/2001/REC-SVG-20010904/DTD/svg10.dtd">
<svg version="1.0" xmlns="http://www.w3.org/2000/svg"
 width="80" height="80" viewBox="0 0 1024.000000 1024.000000"
 preserveAspectRatio="xMidYMid meet">

<g transform="translate(0.000000,1024.000000) scale(0.100000,-0.100000)"
fill="#2563EB" stroke="none">
<path d="M3680 8949 c-251 -38 -454 -227 -532 -495 l-23 -79 0 -1360 0 -1360
23 -75 c41 -130 87 -206 181 -300 97 -96 171 -138 299 -171 76 -19 115 -19
1527 -17 l1450 3 59 22 c209 80 352 228 424 438 l27 80 3 1337 c2 1301 2 1340
-17 1435 -60 296 -276 507 -554 543 -89 12 -2790 11 -2867 -1z m1011 -568 c41
-10 134 -42 207 -70 154 -60 198 -75 271 -91 59 -14 194 -14 256 -1 l40 9 -55
1 c-58 2 -268 35 -277 45 -3 3 5 7 18 10 13 3 94 21 179 41 202 47 190 44 273
55 377 47 689 -248 662 -625 -9 -130 -29 -216 -100 -430 -99 -298 -117 -387
-145 -715 -31 -379 -80 -596 -180 -806 -51 -105 -127 -201 -182 -230 -15 -8
-45 -15 -65 -16 -29 -1 -42 5 -64 30 -37 41 -47 82 -59 232 -6 69 -18 196 -26
284 -46 460 -145 656 -333 656 -95 0 -167 -57 -223 -176 -28 -59 -71 -218 -82
-299 -7 -54 -33 -332 -45 -481 -14 -177 -48 -244 -123 -244 -53 0 -86 19 -145
84 -144 158 -238 479 -278 951 -3 39 -8 90 -10 115 -3 25 -7 70 -10 100 -15
150 -35 231 -126 509 -87 264 -109 371 -105 506 4 121 28 205 87 296 89 138
202 223 352 264 75 20 201 18 288 -4z"/>
<path d="M2710 4031 l0 -591 278 0 c303 0 366 8 469 56 77 36 178 138 220 224
70 140 92 320 58 480 -42 200 -174 341 -372 396 -45 13 -124 18 -355 21 l-298
5 0 -591z m577 365 c80 -25 145 -83 185 -163 32 -66 33 -70 33 -198 -1 -165
-20 -222 -104 -305 -77 -76 -133 -93 -319 -94 l-137 -1 -3 394 -2 393 147 -5
c99 -3 165 -10 200 -21z"/>
<path d="M7330 4030 l0 -590 110 0 110 0 0 590 0 590 -110 0 -110 0 0 -590z"/>
<path d="M5906 4553 c-3 -16 -8 -62 -11 -103 -3 -41 -8 -92 -11 -112 l-6 -38
-54 0 -54 0 0 -90 0 -90 50 0 50 0 0 -235 c0 -129 5 -256 11 -284 14 -67 45
-111 99 -141 39 -21 61 -25 168 -28 l122 -4 0 86 0 86 -60 0 c-51 0 -65 4 -85
25 l-25 24 0 238 0 238 85 -3 85 -3 0 90 0 91 -85 0 -85 0 0 140 0 140 -94 0
-94 0 -6 -27z"/>
<path d="M4192 4305 c-121 -27 -207 -85 -255 -173 -112 -205 -74 -492 80 -618
86 -70 147 -89 294 -89 125 0 125 0 201 38 83 41 133 89 167 163 12 24 21 48
21 54 0 6 -39 10 -100 10 l-100 0 -43 -44 c-83 -86 -207 -88 -294 -4 -29 28
-51 76 -66 146 l-5 22 309 0 309 0 0 63 c-1 222 -121 384 -321 432 -77 18
-114 18 -197 0z m165 -166 c58 -15 106 -62 123 -123 7 -26 10 -49 8 -52 -3 -3
-92 -6 -197 -7 l-191 -2 0 24 c0 37 38 107 68 127 29 19 96 42 125 43 10 1 39
-4 64 -10z"/>
<path d="M5265 4311 c-57 -15 -104 -43 -145 -87 -22 -24 -43 -44 -45 -44 -3 0
-5 27 -5 60 l0 60 -105 0 -105 0 0 -430 0 -430 109 0 109 0 4 273 c3 254 5
275 25 312 38 72 94 105 177 105 53 0 98 -28 122 -76 17 -35 19 -68 22 -326
l4 -288 111 0 112 0 -5 322 c-5 322 -5 323 -31 378 -56 120 -126 170 -246 176
-43 2 -91 0 -108 -5z"/>
<path d="M6669 4310 c-139 -25 -236 -113 -255 -229 l-7 -41 97 0 c91 0 97 1
105 23 22 57 88 87 179 83 91 -5 142 -53 142 -135 0 -39 -1 -40 -37 -46 -21
-4 -49 -8 -63 -10 -14 -3 -47 -7 -75 -11 -90 -10 -222 -42 -262 -62 -80 -42
-123 -113 -123 -204 0 -85 17 -128 70 -180 61 -59 107 -73 230 -73 107 1 159
18 222 74 l37 32 6 -46 7 -45 104 0 105 0 -2 298 c-1 313 -6 382 -37 441 -25
49 -89 96 -159 117 -66 19 -216 27 -284 14z m261 -537 c-1 -101 -65 -176 -162
-189 -103 -14 -168 25 -168 100 0 79 32 99 186 120 154 21 144 24 144 -31z"/>
<path d="M2964 3216 c-127 -29 -224 -99 -271 -194 -24 -49 -28 -69 -28 -142 0
-110 20 -163 86 -225 61 -57 152 -101 250 -120 41 -8 111 -22 156 -31 136 -28
196 -75 196 -156 0 -85 -55 -144 -152 -163 -156 -31 -307 51 -328 177 l-6 38
-113 0 c-132 0 -126 6 -98 -110 37 -159 143 -247 348 -286 75 -15 104 -16 185
-7 277 31 425 176 408 399 -6 83 -29 133 -84 186 -69 67 -141 94 -368 138
-148 29 -207 58 -235 115 -72 148 120 265 310 189 47 -19 93 -68 111 -118 l13
-36 114 0 c103 0 113 2 108 18 -2 9 -12 44 -21 77 -44 162 -186 253 -410 261
-72 2 -131 -1 -171 -10z"/>
<path d="M6620 2620 l0 -600 105 0 105 0 0 600 0 600 -105 0 -105 0 0 -600z"/>
<path d="M5073 2901 c-48 -12 -116 -56 -152 -97 -18 -20 -34 -34 -36 -32 -2 2
-5 29 -6 61 l-2 57 -99 0 -98 0 0 -592 0 -593 107 2 108 2 3 207 2 208 33 -31
c64 -62 111 -78 227 -78 90 0 111 3 147 23 128 68 190 193 198 397 10 281
-116 462 -328 471 -40 2 -86 -1 -104 -5z m69 -171 c82 -23 124 -84 139 -200
28 -222 -88 -389 -236 -340 -98 32 -145 122 -145 274 0 84 3 99 31 154 31 63
60 91 114 110 39 14 53 14 97 2z"/>
<path d="M6033 2901 c-49 -13 -120 -58 -150 -96 -32 -41 -45 -44 -42 -12 1 12
1 39 1 60 l-2 37 -100 0 -100 0 0 -592 0 -593 110 0 110 0 0 209 0 208 35 -31
c64 -56 112 -74 206 -79 110 -6 170 13 237 73 121 109 173 332 123 528 -50
192 -153 287 -320 293 -42 2 -90 -1 -108 -5z m129 -197 c70 -45 105 -165 88
-299 -18 -143 -83 -219 -190 -220 -74 0 -124 32 -164 105 -39 71 -48 198 -20
286 21 68 80 139 128 154 45 13 116 2 158 -26z"/>
<path d="M3730 2588 c0 -359 8 -405 86 -497 54 -64 163 -97 268 -80 71 12 103
28 155 77 42 40 51 37 51 -13 0 -52 5 -55 111 -55 l99 0 0 435 0 435 -109 0
-110 0 -3 -272 c-3 -254 -5 -276 -24 -318 -35 -73 -74 -103 -142 -108 -74 -5
-115 14 -142 68 -19 37 -20 58 -20 335 l0 295 -110 0 -110 0 0 -302z"/>
<path d="M6920 2887 c0 -2 68 -197 151 -433 147 -420 150 -430 138 -468 -7
-21 -27 -54 -45 -73 -29 -31 -35 -33 -98 -33 l-66 0 0 -86 0 -87 113 5 c89 4
121 9 153 26 60 31 109 94 145 186 29 73 329 952 329 962 0 2 -49 4 -108 4
l-109 0 -88 -310 c-48 -170 -91 -310 -94 -310 -4 0 -15 26 -25 58 -9 31 -52
170 -95 307 l-77 250 -112 3 c-62 1 -112 1 -112 -1z"/>
</g>
</svg>
